<?xml version="1.0" standalone="no"?>
<!DOCTYPE svg PUBLIC "-//W3C//DTD SVG 20010904//EN"
 "http://www.w3.org/TR/2001/REC-SVG-20010904/DTD/svg10.dtd">
<svg version="1.0" xmlns="http://www.w3.org/2000/svg"
 width="256.000000pt" height="256.000000pt" viewBox="0 0 256.000000 256.000000"
 preserveAspectRatio="xMidYMid meet">
<metadata>
Created by potrace 1.11, written by Peter Selinger 2001-2013
</metadata>
<g transform="translate(0.000000,256.000000) scale(0.100000,-0.100000)"
fill="#000000" stroke="none">
<path d="M1099 2533 c-1 -16 -1 -36 0 -45 2 -13 -8 -17 -46 -20 l-48 -3 0 -37
c0 -46 -8 -53 -50 -50 -37 4 -47 -11 -40 -60 3 -29 4 -29 -60 -32 l-30 -1 0
-137 0 -138 -47 0 -48 0 0 -90 0 -90 -182 -2 -183 -3 3 -42 c3 -50 19 -45
-160 -45 l-118 0 0 -43 c0 -46 -6 -52 -57 -50 l-33 1 0 -183 0 -183 45 0 45 0
0 -90 c0 -97 -2 -94 60 -91 l35 2 -3 -46 c-4 -43 -3 -45 24 -47 16 0 36 -1 44
0 21 1 27 -13 25 -54 -2 -18 0 -35 4 -35 3 -1 20 -3 36 -4 17 -2 35 -3 40 -4
7 -1 11 -66 11 -181 l0 -179 -45 -3 -46 -3 0 -227 0 -228 47 0 47 0 -3 -34
c-2 -18 0 -39 3 -45 5 -8 84 -11 277 -9 l269 3 -2 42 -2 43 93 0 94 0 -1 45
c-2 34 2 45 13 46 20 1 298 1 330 0 24 -1 26 -4 24 -46 l-2 -45 92 0 92 0 -1
-33 c-2 -60 -15 -57 279 -57 l273 0 -3 44 -3 45 47 3 47 3 0 227 0 228 -45 0
-46 0 0 180 c1 114 4 180 11 181 5 1 25 1 43 1 17 -1 33 2 33 6 1 4 2 25 3 47
2 37 4 40 31 41 17 1 38 2 48 3 14 1 18 8 17 29 -4 59 -3 61 43 59 l42 -2 3
92 3 93 44 0 45 0 0 184 0 183 -45 -2 -45 -2 0 47 0 47 -122 1 c-68 0 -130 1
-138 1 -12 1 -16 12 -15 46 l0 45 -182 0 -183 0 0 90 0 90 -45 0 c-51 0 -46
-21 -48 170 l-2 105 -30 1 c-60 2 -60 2 -59 41 2 44 -7 53 -59 53 l-37 0 2 43
3 42 -47 3 c-46 3 -47 4 -46 35 0 18 0 38 -1 45 -1 9 -44 12 -181 12 l-180 0
-1 -27z"/>
</g>
</svg>
